<?xml version="1.0" encoding="UTF-8" standalone="no"?>
<!-- Created with Inkscape (http://www.inkscape.org/) -->

<svg
   xmlns:dc="http://purl.org/dc/elements/1.1/"
   xmlns:cc="http://creativecommons.org/ns#"
   xmlns:rdf="http://www.w3.org/1999/02/22-rdf-syntax-ns#"
   xmlns:svg="http://www.w3.org/2000/svg"
   xmlns="http://www.w3.org/2000/svg"
   xmlns:sodipodi="http://sodipodi.sourceforge.net/DTD/sodipodi-0.dtd"
   xmlns:inkscape="http://www.inkscape.org/namespaces/inkscape"
   id="svg3105"
   version="1.1"
   inkscape:version="0.48.4 r9939"
   width="1000"
   height="1000"
   xml:space="preserve"
   sodipodi:docname="logo.ai"><metadata
     id="metadata3111"><rdf:RDF><cc:Work
         rdf:about=""><dc:format>image/svg+xml</dc:format><dc:type
           rdf:resource="http://purl.org/dc/dcmitype/StillImage" /><dc:title></dc:title></cc:Work></rdf:RDF></metadata><defs
     id="defs3109"><clipPath
       clipPathUnits="userSpaceOnUse"
       id="clipPath3127"><path
         d="M 0,800 800,800 800,0 0,0 0,800 z"
         id="path3129" /></clipPath></defs><sodipodi:namedview
     pagecolor="#ffffff"
     bordercolor="#666666"
     borderopacity="1"
     objecttolerance="10"
     gridtolerance="10"
     guidetolerance="10"
     inkscape:pageopacity="0"
     inkscape:pageshadow="2"
     inkscape:window-width="1440"
     inkscape:window-height="851"
     id="namedview3107"
     showgrid="false"
     inkscape:zoom="0.472"
     inkscape:cx="463.83768"
     inkscape:cy="596.97534"
     inkscape:window-x="0"
     inkscape:window-y="25"
     inkscape:window-maximized="1"
     inkscape:current-layer="g3113" /><g
     id="g3113"
     inkscape:groupmode="layer"
     inkscape:label="logo"
     transform="matrix(1.25,0,0,-1.25,0,1000)"><text
       transform="matrix(1,0,0,-1,237.5264,374.4609)"
       id="text3115"><tspan
         style="font-size:125.53800200999999959px;font-variant:normal;font-weight:bold;font-stretch:normal;writing-mode:lr-tb;fill:#007899;fill-opacity:1;fill-rule:nonzero;stroke:none;font-family:Novecento sans wide;-inkscape-font-specification:Novecento sans wide"
         sodipodi:role="line"
         id="tspan3117"
         x="0"
         y="0">AIESEC</tspan></text>
<text
       transform="matrix(1,0,0,-1,237.5283,297.7021)"
       id="text3119"><tspan
         style="font-size:78.22949982000000091px;font-variant:normal;font-weight:500;font-stretch:normal;writing-mode:lr-tb;fill:#007899;fill-opacity:1;fill-rule:nonzero;stroke:none;font-family:Novecento sans wide;-inkscape-font-specification:Novecento sans wide"
         sodipodi:role="line"
         id="tspan3121"
         x="0"
         y="0">UNIVERSITY</tspan></text>
<g
       id="g3123"><g
         id="g3125"
         clip-path="url(#clipPath3127)"><g
           id="g3131"
           transform="translate(205.2861,506.2363)"><path
             d="m 0,0 c 6.458,-15.473 2.264,-29.378 -4.091,-38.728 -1.011,-1.486 -1.98,-3.135 -3.724,-3.995 -1.683,-0.827 -4.81,-0.566 -6.856,-0.419 -12.805,0.942 -24.624,5.323 -34.55,12.055 -1.532,1.034 -3.913,2.705 -4.523,4.115 -0.866,2.008 -0.427,4.974 -0.295,6.89 0.302,4.359 0.814,7.984 1.898,12.343 0.558,2.204 1.004,4.419 2.41,5.649 2.551,2.226 8.747,3.75 13.002,5.002 8.645,2.552 17.803,2.716 24.978,2.041 C -8.458,4.643 -3.05,4.224 -1.256,2.362 -0.713,1.796 -0.312,0.74 0,0"
             style="fill:#007899;fill-opacity:1;fill-rule:evenodd;stroke:none"
             id="path3133" /></g><g
           id="g3135"
           transform="translate(199.5693,516.1475)"><path
             d="m 0,0 c 1.811,-3.772 -2.767,-3.255 -4.98,-3.004 -9.55,1.105 -19.318,1.077 -31.856,-3.282 -1.78,-0.615 -4.007,-1.448 -4.773,-0.066 -1.016,1.856 1.149,4.844 2.057,6.363 2.441,4.076 4.332,7.069 7.414,10.852 1.242,1.529 2.585,3.924 5.031,4.664 2.438,0.729 5.937,-0.843 7.994,-1.568 5.056,-1.768 9.522,-4.223 13.536,-7.695 C -3.753,4.686 -1.18,2.46 0,0"
             style="fill:#007899;fill-opacity:1;fill-rule:evenodd;stroke:none"
             id="path3137" /></g><g
           id="g3139"
           transform="translate(86.6948,482.1318)"><path
             d="M 0,0 C 0.175,-1.066 0.355,-2.133 0.576,-3.216 0.792,-4.315 1.045,-5.42 1.312,-6.514 1.359,-6.71 1.401,-6.9 1.452,-7.091 c 0.205,-0.833 0.431,-1.66 0.672,-2.476 0.057,-0.213 0.118,-0.419 0.175,-0.632 0.076,-0.256 0.134,-0.517 0.217,-0.778 0.003,-0.033 0.018,-0.06 0.026,-0.092 0.011,-0.033 0.016,-0.066 0.027,-0.098 0.073,-0.251 0.167,-0.496 0.246,-0.746 0.039,-0.125 0.079,-0.245 0.121,-0.37 0.018,-0.06 0.041,-0.125 0.062,-0.191 0.233,-0.74 0.467,-1.48 0.726,-2.21 0.075,-0.212 0.154,-0.424 0.232,-0.63 3.148,-2.684 6.487,-5.127 9.999,-7.288 9.193,-5.785 19.494,-9.682 30.107,-11.478 7.928,-1.366 15.953,-1.328 23.873,-0.479 -16.45,3.304 -30.615,15.337 -35.776,32.496 -6.935,20.894 1.496,39.197 15.138,56.422 3.607,4.37 7.612,8.392 11.948,11.99 8.659,7.211 18.71,12.68 29.385,15.995 4.638,1.409 9.392,2.395 14.184,2.993 C 95.765,87.824 88.733,89.076 81.907,89.49 69.646,90.241 55.317,87.694 42.656,81.44 38.834,79.558 32.791,74.975 29.813,76.978 26.577,79.144 26.571,84.75 24.288,87.933 16.835,98.323 3.927,99.253 -5.105,91.117 -15.5,81.762 -13.671,66.468 -1.737,59.519 1.497,57.635 6.509,57.733 8.783,55.018 10.101,53.439 9.633,51.17 8.624,48.726 8.15,47.85 7.69,46.963 7.255,46.076 0.789,32.911 -2.832,17.895 -0.042,0.262 -0.031,0.174 -0.011,0.087 0,0"
             style="fill:#007899;fill-opacity:1;fill-rule:evenodd;stroke:none"
             id="path3141" /></g><g
           id="g3143"
           transform="translate(160.4814,407.2666)"><path
             d="m 0,0 c 0.67,1.594 2.772,2.302 5.243,2.677 2.208,0.082 4.435,0.256 6.698,0.555 0.435,0.039 0.856,0.077 1.242,0.125 2.742,0.344 5.444,0.888 8.115,1.519 5.925,5.84 10.992,12.474 14.91,19.74 5.237,9.513 8.539,20.023 9.718,30.722 0.252,2.264 0.376,4.517 0.419,6.776 C 34.762,36.938 8.064,32.246 3.231,31.119 -2.292,29.813 -7.991,29.302 -13.652,29.378 c -5.663,0.147 -11.299,0.827 -16.805,2.019 -11.017,2.362 -21.519,6.901 -30.711,13.263 -2.54,1.775 -4.965,3.706 -7.288,5.747 0.136,-0.315 0.274,-0.631 0.41,-0.941 0.325,-0.757 0.648,-1.524 1,-2.264 7.208,-15.419 18.658,-26.913 31.234,-33.999 0.957,-0.539 1.935,-1.072 2.928,-1.584 2.009,-1.409 3.456,-2.976 3.238,-4.898 -0.4,-3.521 -4.633,-6.204 -6.295,-9.557 -6.123,-12.382 0.787,-26.15 14.621,-28.224 12.018,-1.801 22.273,6.095 22.762,18.874 C 1.589,-8.278 -1.498,-3.592 0,0"
             style="fill:#007899;fill-opacity:1;fill-rule:evenodd;stroke:none"
             id="path3145" /></g><g
           id="g3147"
           transform="translate(245.1587,463.6875)"><path
             d="m 0,0 c 3.72,9.993 5.397,20.796 4.727,31.784 0.35,1.687 1.039,3.009 2.396,3.603 3.249,1.421 7.687,-0.909 11.42,-0.67 C 32.327,35.604 40.795,48.47 35.675,61.489 31.227,72.798 19.259,77.734 7.953,71.77 4.489,69.94 1.982,64.928 -1.886,64.433 c -1.339,-0.174 -2.649,0.68 -3.898,1.992 -5.482,9.388 -12.773,17.356 -21.288,23.566 -5.664,4.321 -11.44,7.527 -17.225,9.861 -5.607,-0.827 -11.114,-2.199 -16.404,-4.147 -10.22,-3.679 -19.648,-9.377 -27.608,-16.626 -4.56,-4.131 -8.491,-8.823 -11.983,-13.813 4.084,2.922 8.701,5.252 13.775,6.776 24.777,7.45 50.996,-6.646 58.447,-31.425 4.868,-13.78 3.76,-27.588 1.528,-39.419 -1.729,-11.141 -5.654,-21.885 -11.465,-31.43 -4.14,-6.706 -9.218,-12.795 -15.001,-18.053 10.212,2.705 19.648,7.364 27.059,12.937 C -15.227,-27.271 -5.597,-16.104 0,0"
             style="fill:#007899;fill-opacity:1;fill-rule:evenodd;stroke:none"
             id="path3149" /></g><g
           id="g3151"
           transform="translate(192.0859,459.5732)"><path
             d="m 0,0 c 0.875,-2.155 -3.799,-4.604 -6.059,-5.796 -5.979,-3.141 -13.281,-4.816 -19.213,-4.816 -3.112,0 -6.668,0.206 -8.087,1.398 -2.225,1.878 -3.598,7.418 -4.763,11.293 -0.474,1.578 -1.302,4.496 -1.636,6.352 -0.305,1.681 -0.886,4.326 0.522,5.083 1.702,0.92 4.18,-1.013 4.974,-1.519 C -25.495,6.504 -15.794,3.075 -5.048,1.764 -3.999,1.638 -0.7,1.72 0,0"
             style="fill:#007899;fill-opacity:1;fill-rule:evenodd;stroke:none"
             id="path3153" /></g><g
           id="g3155"
           transform="translate(166.2329,531.4458)"><path
             d="m 0,0 c 1.226,-1.981 -2.202,-5.056 -3.346,-6.618 -3.06,-4.18 -5.096,-7.826 -7.339,-12.474 -1.241,-2.575 -1.794,-5.143 -3.095,-6.536 -1.533,-1.655 -4.84,-3.119 -7.652,-5.04 -1.149,-0.789 -2.37,-1.785 -3.562,-2.71 -1.162,-0.904 -2.957,-2.161 -4.165,-2.08 -1.811,0.121 -3.226,3.097 -4.248,5.019 -1.467,2.753 -3.302,5.763 -3.196,8.348 0.109,2.618 3.252,6.389 5.192,8.675 5.27,6.199 13.692,12.349 25.711,14.162 C -3.71,1.045 -0.871,1.41 0,0"
             style="fill:#007899;fill-opacity:1;fill-rule:evenodd;stroke:none"
             id="path3157" /></g><g
           id="g3159"
           transform="translate(150.186,499.2485)"><path
             d="m 0,0 c 0.116,-0.185 0.301,-0.534 0.341,-1.132 0.145,-2.281 -0.666,-4.403 -1.052,-7.429 -0.256,-2.035 -0.166,-6.204 -1.901,-6.868 -2.044,-0.784 -3.923,1.866 -4.848,2.922 -1.369,1.562 -3.252,2.934 -3.493,5.247 -0.196,1.872 1.714,3.195 3.661,4.658 C -5.372,-1.165 -1.494,2.433 0,0"
             style="fill:#007899;fill-opacity:1;fill-rule:evenodd;stroke:none"
             id="path3161" /></g><g
           id="g3163"
           transform="translate(148.3779,477.4897)"><path
             d="m 0,0 c 0.791,-1.66 0.948,-4.294 1.263,-6.46 0.541,-3.799 1.251,-8.028 2.931,-12.942 0.617,-1.802 2.119,-4.594 0.619,-5.693 -2.084,-1.54 -6.858,1.883 -8.212,2.727 -5.176,3.238 -9.161,6.683 -12.986,12.245 -1.812,2.64 -3.87,5.731 -4.74,9.383 -0.928,3.902 3.162,7.777 5.492,10.411 0.675,0.762 1.715,2.036 3.012,2.281 2.328,0.424 4.742,-3.391 6.52,-5.296 C -3.637,4.011 -1.776,2.863 -0.11,0.381 -0.042,0.278 -0.048,0.114 0,0"
             style="fill:#007899;fill-opacity:1;fill-rule:evenodd;stroke:none"
             id="path3165" /></g><g
           id="g3167"
           transform="translate(133.8345,494.4702)"><path
             d="m 0,0 c 0.815,-2.607 -1.059,-3.859 -2.962,-6.09 -1.173,-1.388 -2.606,-3.783 -4.327,-3.358 -2.483,0.626 -1.773,7.94 -1.623,9.502 0.133,1.432 0.346,2.917 0.673,4.583 0.256,1.284 0.773,3.336 2.181,3.662 1.674,0.398 2.597,-1.687 3.429,-3.211 C -1.57,3.167 -0.581,1.856 0,0"
             style="fill:#007899;fill-opacity:1;fill-rule:evenodd;stroke:none"
             id="path3169" /></g></g></g></g></svg>